<?xml version="1.0" encoding="utf-8"?>
<!-- Generator: Adobe Illustrator 22.0.1, SVG Export Plug-In . SVG Version: 6.00 Build 0)  -->
<svg version="1.1" id="Слой_1" xmlns="http://www.w3.org/2000/svg" xmlns:xlink="http://www.w3.org/1999/xlink" x="0px" y="0px"
	 viewBox="0 0 60 40" style="enable-background:new 0 0 60 40;" xml:space="preserve">
<style type="text/css">
	.st0{fill:#3796F6;}
	.st1{fill:#FFFFFF;}
</style>
<path class="st0" d="M54,40H6c-3.3,0-6-2.7-6-6V6c0-3.3,2.7-6,6-6h48c3.3,0,6,2.7,6,6v28C60,37.3,57.3,40,54,40z"/>
<g>
	<path class="st1" d="M8.3,12.6c0-1.1,0.9-1.8,2-1.8c1.2,0,2,0.8,2,1.8c0,1.1-0.9,1.8-2,1.8C9.2,14.5,8.3,13.7,8.3,12.6z M8.6,16.2
		h3.5v11.9H8.6V16.2z"/>
	<path class="st1" d="M14.1,25.6l2.4-1.8c0.6,1.1,1.4,1.6,2.2,1.6c1.3,0,1.9-0.6,1.9-2.7V12.5h3.5v10.4c0,3-1.6,5.5-5,5.5
		C16.7,28.4,15.2,27.5,14.1,25.6z"/>
	<path class="st1" d="M26.8,22.2c0-4,2.8-6.2,5.8-6.2c3,0,5.8,2.3,5.8,6.2c0,4-2.8,6.2-5.8,6.2C29.6,28.4,26.8,26.1,26.8,22.2z
		 M34.8,22.2c0-2.1-0.7-3.4-2.2-3.4c-1.5,0-2.2,1.3-2.2,3.4c0,2.1,0.7,3.4,2.2,3.4C34,25.6,34.8,24.2,34.8,22.2z"/>
	<path class="st1" d="M43.7,26.9L43.7,26.9l-0.4,1.3h-2.8V11.3h3.5v4.1L44,17.2c0.9-0.8,2-1.3,3.2-1.3c2.9,0,4.7,2.4,4.7,6
		c0,4.1-2.4,6.5-5,6.5C45.8,28.4,44.7,27.9,43.7,26.9z M48.2,22c0-2.1-0.7-3.2-2.1-3.2c-0.7,0-1.4,0.3-2,1.1v4.9
		c0.6,0.6,1.3,0.8,1.9,0.8C47.2,25.5,48.2,24.5,48.2,22z"/>
</g>
</svg>
