<?xml version="1.0" encoding="utf-8"?>
<!-- Generator: Adobe Illustrator 22.0.1, SVG Export Plug-In . SVG Version: 6.00 Build 0)  -->
<svg version="1.1" id="Слой_1" xmlns="http://www.w3.org/2000/svg" xmlns:xlink="http://www.w3.org/1999/xlink" x="0px" y="0px"
	 viewBox="0 0 130 130" style="enable-background:new 0 0 130 130;" xml:space="preserve">
<style type="text/css">
	.st0{fill:#86AAC0;}
	.st1{fill:#FFFFFF;}
</style>
<rect x="0" y="0.1" class="st0" width="130" height="130"/>
<path class="st1" d="M91,90.6c-1-4.5-6.8-6.7-8.8-7.4c-2.2-0.8-5.3-1-7.3-1.4c-1.2-0.3-2.8-0.9-3.4-1.6s-0.2-6.9-0.2-6.9
	s1-1.6,1.6-3.1C73.4,68.9,74,65,74,65s1.2,0,1.6-2c0.4-2.2,1.1-3.1,1-4.7c-0.1-1.6-1-1.6-1-1.6s0.9-2.3,1-7.2
	C76.7,43.7,72.2,38,64,38c-8.3,0-12.7,5.7-12.6,11.5c0.1,4.9,0.9,7.2,0.9,7.2s-0.9,0-1,1.6s0.6,2.5,1,4.7c0.4,2,1.6,2,1.6,2
	s0.6,3.9,1.2,5.3c0.6,1.4,1.6,3.1,1.6,3.1s0.3,6.3-0.2,6.9c-0.6,0.7-2.2,1.3-3.4,1.6c-2,0.5-5.1,0.6-7.3,1.4c-2,0.7-7.8,2.9-8.8,7.4
	c-0.2,0.7,0.4,1.4,1.1,1.4h51.7C90.6,92,91.1,91.3,91,90.6z"/>
</svg>
